<svg xmlns="http://www.w3.org/2000/svg" width="192" height="192" viewBox="0 0 192 192"><defs><linearGradient id="logoGradient" x1="0%" x2="100%" y1="0%" y2="100%"><stop offset="0%" style="stop-color:#22c55e;stop-opacity:1"/><stop offset="100%" style="stop-color:#059669;stop-opacity:1"/></linearGradient></defs><circle cx="96" cy="96" r="96" fill="#09090B"/><path fill="rgba(34, 197, 94, 0.1)" d="M38,173 C38,173 38,38 96,19 C154,38 154,173 154,173 Z"/><g transform="translate(0 -10)"><rect width="23" height="58" x="54" y="115" fill="url(#logoGradient)" rx="6"/><rect width="23" height="96" x="85" y="77" fill="url(#logoGradient)" rx="6"/><rect width="23" height="77" x="115" y="96" fill="url(#logoGradient)" rx="6"/></g><path fill="rgba(34, 197, 94, 0.2)" stroke="url(#logoGradient)" stroke-linecap="round" stroke-linejoin="round" stroke-width="6" d="M96,29 A29,29 0 0,1 125,58 H67 A29,29 0 0,1 96,29 Z"/><circle cx="96" cy="58" r="10" fill="url(#logoGradient)"/><text x="96" y="150" fill="url(#logoGradient)" font-family="Arial Black, sans-serif" font-size="48" font-weight="900" text-anchor="middle">G</text></svg>