<svg width="192" height="192" viewBox="0 0 192 192" xmlns="http://www.w3.org/2000/svg">
  <defs>
    <linearGradient id="logoGradient" x1="0%" y1="0%" x2="100%" y2="100%">
      <stop offset="0%" style="stop-color:#22c55e;stop-opacity:1" />
      <stop offset="100%" style="stop-color:#059669;stop-opacity:1" />
    </linearGradient>
  </defs>
  
  <!-- Background circle -->
  <circle cx="96" cy="96" r="96" fill="#09090B"/>
  
  <!-- Background shape -->
  <path 
    d="M38,173 C38,173 38,38 96,19 C154,38 154,173 154,173 Z" 
    fill="rgba(34, 197, 94, 0.1)" 
  />

  <!-- Main Bar Chart Element -->
  <g transform="translate(0 -10)">
    <rect x="54" y="115" width="23" height="58" rx="6" fill="url(#logoGradient)" />
    <rect x="85" y="77" width="23" height="96" rx="6" fill="url(#logoGradient)" />
    <rect x="115" y="96" width="23" height="77" rx="6" fill="url(#logoGradient)" />
  </g>

  <!-- Brain/Intelligence Element -->
  <path 
    d="M96,29 A29,29 0 0,1 125,58 H67 A29,29 0 0,1 96,29 Z" 
    fill="rgba(34, 197, 94, 0.2)"
    stroke="url(#logoGradient)"
    stroke-width="6"
    stroke-linejoin="round"
    stroke-linecap="round"
  />
  <circle cx="96" cy="58" r="10" fill="url(#logoGradient)" />

  <!-- Letter G -->
  <text x="96" y="150" font-family="Arial Black, sans-serif" font-size="48" font-weight="900" text-anchor="middle" fill="url(#logoGradient)">G</text>
</svg>
