<svg width="512" height="512" viewBox="0 0 512 512" xmlns="http://www.w3.org/2000/svg">
  <defs>
    <linearGradient id="logoGradient" x1="0%" y1="0%" x2="100%" y2="100%">
      <stop offset="0%" style="stop-color:#22c55e;stop-opacity:1" />
      <stop offset="100%" style="stop-color:#059669;stop-opacity:1" />
    </linearGradient>
  </defs>
  
  <!-- Background circle -->
  <circle cx="256" cy="256" r="256" fill="#09090B"/>
  
  <!-- Background shape -->
  <path 
    d="M102,461 C102,461 102,102 256,51 C410,102 410,461 410,461 Z" 
    fill="rgba(34, 197, 94, 0.1)" 
  />

  <!-- Main Bar Chart Element -->
  <g transform="translate(0 -27)">
    <rect x="144" y="307" width="62" height="154" rx="16" fill="url(#logoGradient)" />
    <rect x="226" y="205" width="62" height="256" rx="16" fill="url(#logoGradient)" />
    <rect x="307" y="256" width="62" height="205" rx="16" fill="url(#logoGradient)" />
  </g>

  <!-- Brain/Intelligence Element -->
  <path 
    d="M256,77 A77,77 0 0,1 333,154 H179 A77,77 0 0,1 256,77 Z" 
    fill="rgba(34, 197, 94, 0.2)"
    stroke="url(#logoGradient)"
    stroke-width="16"
    stroke-linejoin="round"
    stroke-linecap="round"
  />
  <circle cx="256" cy="154" r="26" fill="url(#logoGradient)" />

  <!-- Letter G -->
  <text x="256" y="400" font-family="Arial Black, sans-serif" font-size="128" font-weight="900" text-anchor="middle" fill="url(#logoGradient)">G</text>
</svg>
